<svg width="137" height="22" viewBox="0 0 137 22" fill="none" xmlns="http://www.w3.org/2000/svg">
<g clip-path="url(#clip0_24_3376)">
<path d="M14.5361 14.3718V20.1318H24.2368V21.1198H0V20.1318H9.70066V14.3718H1.84147V1.44107H0.842056V0.668762H22.2635V14.3762H14.5361V14.3718ZM7.28081 13.3838H16.8241V1.65248H7.28081V13.3881V13.3838Z" fill="#232C34"/>
<path d="M35.9873 21.7325V14.3718H26.2866V13.3838H50.5234V14.3718H40.8227V21.7325H35.9873ZM27.2563 0.668762H48.0993V1.6568H33.695V9.41871H48.2566V10.4068H28.2514V1.44107H27.252V0.668762H27.2563Z" fill="#232C34"/>
<path d="M68.9465 19.6788H52.569V18.6907H68.9465V19.6788ZM52.9134 7.27868C52.9134 5.8031 53.0623 4.61659 53.36 3.71916C53.6577 2.82173 54.1127 2.12277 54.7251 1.62659C55.3375 1.13042 56.1286 0.798196 57.0897 0.638557C58.0551 0.478917 59.1991 0.396941 60.5345 0.396941C61.8699 0.396941 63.0011 0.478917 63.9367 0.638557C64.8723 0.798196 65.6379 1.1261 66.2247 1.62659C66.8116 2.12277 67.2412 2.82173 67.5133 3.71916C67.7855 4.61659 67.9216 5.8031 67.9216 7.27868C67.9216 8.75427 67.7855 9.91057 67.5133 10.7994C67.2412 11.6882 66.8116 12.3785 66.2247 12.8661C65.6379 13.3536 64.8766 13.6772 63.9367 13.8411C62.9969 14.0008 61.8656 14.0828 60.5345 14.0828C59.2034 14.0828 58.0593 14.0008 57.1025 13.8411C56.1456 13.6815 55.3588 13.3579 54.7379 12.8661C54.117 12.3785 53.6577 11.6882 53.3557 10.7994C53.058 9.91057 52.9092 8.73701 52.9092 7.27868H52.9134ZM61.4829 13.0127C61.8869 13.0127 62.2143 12.948 62.4695 12.8143C62.7247 12.6805 62.9203 12.495 63.0606 12.2534C63.201 12.0118 63.2988 11.7399 63.3498 11.425C63.4009 11.1143 63.4264 10.7821 63.4264 10.424V3.89174C63.4264 3.53795 63.4009 3.20141 63.3498 2.89076C63.2988 2.58011 63.201 2.30398 63.0606 2.06237C62.9203 1.82075 62.7247 1.63522 62.4695 1.50147C62.2143 1.36772 61.8869 1.303 61.4829 1.303H59.5393C59.1353 1.303 58.8078 1.36772 58.5527 1.50147C58.2975 1.63522 58.0976 1.82075 57.9488 2.06237C57.7999 2.30398 57.6979 2.58011 57.6468 2.89076C57.5958 3.20141 57.5703 3.53363 57.5703 3.89174V10.424C57.5703 10.7821 57.5958 11.1143 57.6468 11.425C57.6979 11.7356 57.7999 12.0118 57.9488 12.2534C58.0976 12.495 58.2975 12.6805 58.5527 12.8143C58.8078 12.948 59.1353 13.0127 59.5393 13.0127H61.4829ZM69.2868 0H76.8057V0.828398H75.4406V19.6572C75.4406 19.9074 75.5086 20.0671 75.6532 20.1361C75.7936 20.2051 75.9594 20.244 76.1508 20.244H76.9928V21.0724H69.291V20.244H70.1841C70.4308 20.244 70.5839 20.1706 70.6434 20.0326C70.7029 19.8902 70.737 19.7564 70.737 19.6313V0.828398H69.291V0H69.2868Z" fill="#232C34"/>
<path d="M100.962 1.73446H96.7047V3.78819C96.7047 5.13865 96.8535 6.23456 97.1512 7.06727C97.4489 7.90429 97.8529 8.56011 98.359 9.03903C98.8651 9.51794 99.469 9.85017 100.158 10.0271C100.851 10.204 101.591 10.3205 102.378 10.3722V11.3603C101.396 11.3603 100.473 11.2697 99.6051 11.0928C98.7375 10.9159 97.955 10.6095 97.2533 10.1738C96.5516 9.73799 95.9477 9.16415 95.4416 8.45225C94.9313 7.74034 94.5485 6.85154 94.2848 5.78584C94.0552 6.89037 93.6469 7.81369 93.0473 8.56011C92.4519 9.30653 91.7672 9.90626 90.9974 10.3593C90.2277 10.8123 89.4111 11.1316 88.5521 11.3214C87.693 11.5113 86.8807 11.5933 86.1067 11.576V10.588C87.1741 10.588 88.0672 10.4024 88.7732 10.0271C89.4834 9.6517 90.049 9.15552 90.4701 8.53422C90.8911 7.91292 91.1888 7.1967 91.3632 6.38557C91.5375 5.57874 91.6268 4.72014 91.6268 3.81408V1.73446H86.9487V0.772308H100.957V1.73446H100.962ZM88.1863 17.3359C88.1863 16.322 88.5223 15.5066 89.1985 14.881C89.8747 14.2597 90.738 13.7807 91.8012 13.4399C92.8601 13.1034 94.0297 12.8747 95.3098 12.7582C96.5899 12.6417 97.8317 12.5856 99.0437 12.5856C100.256 12.5856 101.472 12.6417 102.697 12.7582C103.922 12.8747 105.032 13.099 106.023 13.4399C107.013 13.7764 107.817 14.2597 108.442 14.881C109.063 15.5023 109.374 16.322 109.374 17.3359C109.374 18.3499 109.063 19.161 108.442 19.778C107.822 20.3907 107.013 20.861 106.023 21.1932C105.032 21.5211 103.926 21.7411 102.697 21.8447C101.472 21.9525 100.252 22.0043 99.0437 22.0043C97.8359 22.0043 96.5899 21.9525 95.3098 21.8447C94.0297 21.7368 92.8601 21.5211 91.8012 21.1932C90.7423 20.8653 89.8747 20.395 89.1985 19.778C88.5223 19.1653 88.1863 18.3499 88.1863 17.3359ZM93.077 17.3359C93.077 18.0479 93.2344 18.6389 93.5491 19.1092C93.8638 19.5795 94.2891 19.9592 94.8249 20.244C95.3608 20.5287 95.9902 20.7272 96.7174 20.8437C97.4447 20.9602 98.2187 21.0163 99.0437 21.0163C99.8688 21.0163 100.613 20.9602 101.276 20.8437C101.944 20.7272 102.514 20.5287 102.986 20.244C103.458 19.9592 103.828 19.5795 104.092 19.1092C104.355 18.6389 104.487 18.0479 104.487 17.3359C104.487 16.624 104.355 16.0027 104.092 15.5238C103.828 15.0449 103.462 14.6566 102.986 14.3632C102.514 14.0698 101.944 13.867 101.276 13.7505C100.609 13.634 99.8645 13.578 99.0437 13.578C98.2229 13.578 97.4447 13.634 96.7174 13.7505C95.9902 13.867 95.3608 14.0698 94.8249 14.3632C94.2891 14.6566 93.8638 15.0449 93.5491 15.5238C93.2344 16.0027 93.077 16.6068 93.077 17.3359ZM102.382 0H110.033V0.828398H108.668V4.80212H112.138V6.02746H108.668V11.7054H103.832V0.828398H102.386V0H102.382Z" fill="#232C34"/>
<path d="M122.515 8.40047H118.126V18.242C118.126 18.4189 118.177 18.5785 118.283 18.7209C118.39 18.8633 118.556 18.9237 118.781 18.9065C119.325 18.8892 119.904 18.8072 120.516 18.6648C121.128 18.5225 121.754 18.3499 122.383 18.1428C123.012 17.94 123.625 17.7243 124.225 17.5042C124.82 17.2842 125.364 17.0728 125.853 16.8786V11.0669H122.698V9.84154H125.853V6.26907H122.961V5.04373H125.853V0.772308H124.828V0H130.008V19.6529C130.008 19.8643 130.059 20.011 130.166 20.093C130.272 20.1749 130.404 20.2224 130.561 20.2397H131.008C131.22 20.2397 131.356 20.1879 131.429 20.08C131.497 19.9722 131.544 19.8557 131.561 19.7348V0.772308H130.561V0H136.843V0.772308H135.711V19.6529C135.711 19.9031 135.779 20.0628 135.924 20.1318C136.064 20.2008 136.23 20.2397 136.422 20.2397H137V21.0681H124.671V20.2397H125.3C125.547 20.2397 125.7 20.1663 125.76 20.0282C125.819 19.8859 125.853 19.7521 125.853 19.627V18.0004C125.207 18.2506 124.484 18.5095 123.684 18.7856C122.885 19.0618 122.043 19.3207 121.15 19.558C120.257 19.7996 119.313 19.998 118.326 20.1577C117.335 20.3173 116.314 20.3993 115.264 20.3993C114.511 20.3993 113.988 20.1965 113.699 19.7866C113.41 19.3767 113.265 18.8245 113.265 18.1341V7.41243H117.969V1.65248H113.159V0.668759H122.515V8.40047Z" fill="#232C34"/>
</g>
<defs>
<clipPath id="clip0_24_3376">
<rect width="137" height="22" fill="white"/>
</clipPath>
</defs>
</svg>
